<svg xmlns="http://www.w3.org/2000/svg" viewBox="0 0 524.01 668.04"><defs><style>.cls-1{fill:#2b2a8d;fill-rule:evenodd;}</style></defs><title>Asset 1</title><g id="Layer_2" data-name="Layer 2"><g id="Layer_1-2" data-name="Layer 1"><path class="cls-1" d="M452.36,124.45c5.91-13,18.68-82.64-4.31-79.39-16.54,2.28-46.36,13-56.18,27.69C409.54,86.57,437.15,117.19,452.36,124.45Z"/><path class="cls-1" d="M366,70.85c4.36-3.48,9.41-1.38,13.43-7.5-7.8-16.17-22.33-48.79-43.09-46.29-13,11.32-24.84,18.44-29.74,34.15C323.85,70.1,345.42,53.93,366,70.85Z"/><path class="cls-1" d="M468.05,222.32c15.75,5.45,42-28.73,56-45.46-14.16-16.62-40.13-40.79-58.39-36.43-7.94,13.36-4.89,26.72-5.18,42.95C460.25,194.3,457,218.57,468.05,222.32Z"/><path class="cls-1" d="M225.29,58c10.51-4.92,49.08,6.65,57-5.64,6.82-10.6-15.49-55.21-35.56-48.42-10.21,6.45-21.33,25.65-29.16,38.42C219.17,47.67,222.09,52.8,225.29,58Z"/><path class="cls-1" d="M112.5,62.39c29.27,5.34,56.86-1.52,85.05-4C189.7,38.55,183-3.54,151.73.24,137.06,19,107.9,44.62,112.5,62.39Z"/><path class="cls-1" d="M452.07,243.48c-7.5,7.45.87,28.27,1.05,39.84.05,10.69-4.25,19.57,2.63,27.45,21.81,5.06,38.83-24.94,57.83-40.27C506.23,254,462.59,232.91,452.07,243.48Z"/><path class="cls-1" d="M64,113.55C45.84,129.94,25.49,130,8.37,153.37c8,15.8,25.64,42.27,47.36,45.75,12-28.71,13-55.93,12-82.76C65.58,118.12,66.31,114.87,64,113.55Z"/><path class="cls-1" d="M422.6,465.43c-1.67,13.3-3.49,24.32-.82,34.53,2,5.56,13.55,12.26,18.66,14.08,14.32-7.17,37.12-26.32,42.57-45.89-5.11-14.67-23.87-40.94-42.47-41.93C423.57,425.35,424.3,452.12,422.6,465.43Z"/><path class="cls-1" d="M43,324.25c12-29.19,20.68-67.1,6.42-98.66-17.86,2-33.2,22.5-49.39,36.79,1.56,14.83,14.78,27.72,24.71,42.16C30.15,312.41,34.33,324.33,43,324.25Z"/><path class="cls-1" d="M370.61,588.16c-29,7.57-58.68,9.72-86.73,24.18,8.3,18.41,22.91,46.76,47.74,55.7,10.08-20.42,38.61-52.69,44-76.11C373.88,590.65,372.25,589.42,370.61,588.16Z"/><path class="cls-1" d="M102.72,459.45C93,476.38,75.81,494.28,72,510.34c9,12.74,27.69,30.09,42.84,28.62C115.67,518.46,131.8,463.1,102.72,459.45Z"/><path class="cls-1" d="M90.38,627.84c7.42,7.35,15.83-.68,28.36-3.87,22.31-5.71,48.7,2.42,39.73-26.59-21.3-8.92-31-36.16-50.31-34.2.57-3-1.91-6.5-5.28-5.93-10.35,18.82-5.36,35.61-9.27,53.54C87.1,617.21,89,622.56,90.38,627.84Z"/><path class="cls-1" d="M330.4,86.8c-9-1.14-18.88,1-27.72.54-34.19-2-66.72-4.78-100.58-4-32.8.73-67-1.33-98.48,11.33-4.44,6,9.92,5.17,4.63,9.38-25.43,29.16-23.75,50.14-28.45,84-3,21.49-7.1,41.32-9.59,59.15-6.36,45.24-21,107.72,4,141.72,15.12-3.5,23.1-17.63,29.38-28.5,30.22-52.23,22.9-129.88,54.81-183.24,4.91-8.17,11.52-20.72,18.48-26.93,13-11.68,45.12-12.93,62.4-15.3,10.27-1.45,63.49-9.68,64.17-2.18.4,4.36,10.57,5.93,12.12,7.2,11.06,9.2,21.88,25.73,31.28,33.5,16.85,52.68,13.68,103.68,7.92,162.27-1.53,15.54-2.8,35.31-5.89,54.24-5.73,35.16-7.77,62.52-40.07,96.65-28.46,8.28-56.44,20-85.69,22.94-30.56-17.65-36.29-38.74-42.72-59.75,4.39-47.92,5.82-105.21,12-155,1.73-14.2,2-43.81,9.31-53.52,7.06-9.44,22.86-12.4,38-14.14,4.6-.51,36.69-2.66,40.12,1.16s-1.94,30.34-2.32,39.19c-1.86,41-.18,81.64-9.57,115.83-17.32-7.32-10.45-27.64-10.15-40.81.42-15.45,1.58-31.06.54-44.59-11-3.8-13.68-3-21.41-10.34-4.75,5.69-13.38,13.87-16.91,22.33-8.39,19.92-10.71,89.7-2.12,105.92,3.06,5.68,19.42,25.09,22.65,26.86,14.41,8.07,32.9-7.39,45.19-10.7,7.37-1.94,9.2,3.49,15.24-2.09,12.12-11.12,12.21-44.61,15-61,10.29-60.91,15.77-126.19-3.54-178.51-33.61-22-82.71-14.11-112.7,4.44-29,18-42.13,48-50.9,82.59-5.24,20.7-10.54,40.58-10.59,60.35,0,12.37,3.25,24.39.77,37.68-6.29,33.49-7.49,57.3-6.72,96.54.66,30-5.23,78.37,10.77,94.14,4.14,4.1,14,5.83,21.44,10.43,25.1,15.19,48.94,16.82,80,15.62,43.42-1.69,85.13-6.41,122.56-30.25,4.47-3.81-5.88-8.08,1-9,21.45-27.48,21.31-49.29,27.43-74.88,3.77-15.69,5.61-31.2,8-46.69,5-32.16,16.5-64.15,20.38-94,8.28-62.61,19.19-125.58,10.25-183.75-14.38-13.39-31-34.58-44.91-51.6C369.89,99.58,350.18,89.28,330.4,86.8Z"/><path class="cls-1" d="M441.48,360.53c-2.84,18.48-7,32.89-2.4,47C450,415.47,457.29,400.47,465,394c13.44-11.33,35-20.9,38.48-35.35-12.38-14.15-33.85-25.9-48.79-31C438.84,334.8,443.73,346.23,441.48,360.53Z"/><path class="cls-1" d="M67.77,100.76c14.25,1.36,25.7-18.1,39.37-21-.24-17.38-26.89-26.88-41.88-37.62-4.79,5.34-10.78,2.62-15.85,5.58C56.58,65.29,48.53,84.87,67.77,100.76Z"/><path class="cls-1" d="M382.13,583.26c8.6,16.76,59.66,3.65,66.73-8.06,5.72-9.6-9.25-46.2-18.76-55.27C412.06,528.61,389.16,565.15,382.13,583.26Z"/><path class="cls-1" d="M196.7,608.76c-7.74.06-15.1-2.4-18.68,1.46-6.87,7.68,1.17,14.57,5.19,21.54,4.57,8.07,6.71,18.35,12,22.79,11.7,9.92,29.63,13.4,39.5,12.37,18.9-15,24.06-41.73,33.87-52.49C254.42,599.56,215.28,608.64,196.7,608.76Z"/><path class="cls-1" d="M368.58,113.79c-3.63,3-8.1.42-12.75-3.78C360,104.84,366.32,110.79,368.58,113.79Z"/><path class="cls-1" d="M349.13,142.05c-7.05-.3-15.86-12.9-23-13.51C335,122.15,343.21,135.59,349.13,142.05Z"/><path class="cls-1" d="M478.14,263.18c-2.38,4.43-5.63,2.69-7.87,7.79-5.26-3.36,1-8.28-2.73-11.83C470.78,258.6,474.33,260.15,478.14,263.18Z"/><path class="cls-1" d="M141.25,37.27c3.18,2.92,4.63,6,4.65,9.4-4.51,4.79-10.22,1.19-15,4.28C129.77,44.71,138.82,44,141.25,37.27Z"/><path class="cls-1" d="M437.07,441.17c1.81-2.88,4.87,2.77,7.1,3.44-1.55,2.37-3.48,1.51-5,4C434.38,446.75,440.56,443.25,437.07,441.17Z"/><path class="cls-1" d="M366.59,518.7c1.25,1,2.47,1.88,3.74,2.83-6.44,10.32-10.49,15.45-19.13,22.63C353.94,536,362.22,527,366.59,518.7Z"/><path class="cls-1" d="M78.14,337.22c.36,1.63,2,4.51,3.7,2.87-.35,7.43,3.83,14.28-3.5,22.67C76.28,354.52,76.53,346,78.14,337.22Z"/><path class="cls-1" d="M292.48,198.78c8.9-2.85,7.71,12.26,12.37,17.14C298.52,214.92,301.29,203.06,292.48,198.78Z"/><path class="cls-1" d="M395.44,356.87c2.43,11.93,2,39.71-7.17,53.22C383.58,397.67,394.58,373.75,395.44,356.87Z"/><path class="cls-1" d="M98.58,235.42c4.3,4.71-8.61,21.19-13.57,30.81C84.28,256.69,96.48,245.4,98.58,235.42Z"/><path class="cls-1" d="M425.32,541.68c2.76-1.71,4.45,9.4-1,9C420,548.37,427.72,544.36,425.32,541.68Z"/><path class="cls-1" d="M83.9,298.65c1.11,3.54-3,7.83-2.81,11.5C79.34,311.23,79,298.71,83.9,298.65Z"/></g></g></svg>