<?xml version="1.0" encoding="UTF-8"?>
<svg width="20px" height="26px" viewBox="0 0 20 26" version="1.1" xmlns="http://www.w3.org/2000/svg" xmlns:xlink="http://www.w3.org/1999/xlink">
    <!-- Generator: Sketch 52.1 (67048) - http://www.bohemiancoding.com/sketch -->
    <title>Layer 2</title>
    <desc>Created with Sketch.</desc>
    <g id="Page-1" stroke="none" stroke-width="1" fill="none" fill-rule="evenodd">
        <g id="Layer-2" fill="#3D3F99">
            <path d="M7.39366,5.68763 C10.3765,4.72296 12.7162,3.54392 12.9214,2.94981 C12.8999,2.86406 12.8754,2.77832 12.854,2.69257 C12.8325,2.60682 12.808,2.53026 12.7866,2.44757 C12.7468,2.31283 12.7101,2.17502 12.6672,2.03721 C12.6519,1.98208 12.6335,1.92696 12.6182,1.86877 C12.5722,1.68503 12.5079,1.51047 12.4467,1.32672 C12.6243,1.86877 10.1468,3.16418 6.91286,4.20235 C3.67893,5.24051 0.934988,5.66619 0.745117,5.10883 C0.787991,5.24051 0.827803,5.36607 0.870677,5.4947 C0.879543,5.52173 0.889764,5.54831 0.901301,5.57432 C0.938051,5.68763 0.977862,5.80094 1.01461,5.91119 L1.01461,5.94181 C1.10648,6.20212 1.20142,6.4563 1.29636,6.70129 C1.82616,7.07185 4.40779,6.6523 7.39366,5.68763 Z" id="Path"></path>
            <path d="M9.56214,23.5662 C11.8869,23.078 14.1535,22.345 16.324,21.3796 C16.5647,21.2746 16.7564,21.0819 16.8599,20.8406 L16.4097,19.9494 L16.2015,19.5391 C16.0938,19.6582 15.9637,19.7549 15.8187,19.8239 C13.6484,20.7897 11.3818,21.5227 9.05684,22.0104 C8.89914,22.0418 8.7368,22.0418 8.5791,22.0104 L8.64035,22.3902 L8.80878,23.4498 C9.03585,23.5833 9.30537,23.6249 9.56214,23.5662 Z" id="Path"></path>
            <path d="M13.0143,13.1783 C12.8214,13.2763 12.6193,13.3743 12.4018,13.4693 L12.2885,13.5213 C12.0599,13.6255 11.8241,13.7275 11.5811,13.8276 C11.3484,13.9195 11.1125,14.0113 10.8706,14.0971 C10.6287,14.1828 10.3684,14.2716 10.1142,14.3513 C9.94576,14.4064 9.77426,14.4554 9.60583,14.5044 C9.3394,14.5809 9.07296,14.6544 8.80653,14.7188 L8.24304,14.8535 L7.97967,14.9056 C7.77755,14.9423 7.5785,14.9791 7.36719,15.0066 L7.62443,16.6266 C9.7399,16.2226 11.7972,15.5581 13.7493,14.6483 L13.0143,13.1783 Z" id="Path"></path>
            <path d="M2.44514,4.95265 L2.5707,4.93427 C3.89678,4.71897 5.20424,4.40158 6.48143,3.98492 L6.50593,3.98492 L6.79686,3.89305 C10.04,2.83957 12.5175,1.55028 12.3429,1.00823 L12.3215,0.965359 C12.3066,0.945469 12.2879,0.9288 12.2664,0.91636 L12.2327,0.882674 C12.2145,0.871086 12.195,0.861826 12.1745,0.855112 L12.0888,0.824487 L12.0673,0.824487 L11.9877,0.799988 L11.9601,0.799988 L11.8805,0.799988 L11.8529,0.799988 L11.7519,0.799988 L11.3997,0.799988 C10.2911,0.833675 8.33727,1.24404 6.17213,1.94534 C4.00699,2.64664 2.19096,3.45512 1.27223,4.08904 L1.22936,4.1166 L1.19261,4.14417 L1.09155,4.21767 L0.999675,4.29116 C0.699556,4.48716 0.595434,4.66172 0.62912,4.78728 C0.632744,4.80063 0.63899,4.81312 0.647495,4.82403 C0.797554,5.05371 1.45904,5.0874 2.44514,4.95265 Z" id="Path"></path>
            <path d="M11.2676,4.62503 L11.289,4.66178 L13.7145,9.34118 C13.8093,7.32764 13.5777,5.31202 13.0285,3.3725 C12.9244,3.67874 12.2659,4.13504 11.2676,4.62503 Z" id="Path"></path>
            <path d="M10.6802,4.90057 C9.88707,5.25888 8.93771,5.62943 7.89648,5.97855 L11.1396,11.886 L10.6802,4.90057 Z" id="Path"></path>
            <path d="M4.35547,6.96159 L8.06714,12.8813 L7.23722,6.19598 C6.19599,6.52366 5.22214,6.78091 4.35547,6.96159 Z" id="Path"></path>
            <path d="M11.4277,6.34302 L11.884,13.2917 C12.1903,13.1539 12.4965,13.0069 12.8028,12.8568 C13.1999,12.1196 13.4642,11.3183 13.5837,10.4896 L11.4277,6.34302 Z" id="Path"></path>
            <path d="M8.8969,14.3238 C9.71667,14.1099 10.5226,13.846 11.3101,13.5337 C11.2764,13.4969 11.4663,13.8399 8.07617,7.65686 L8.8969,14.2564 C8.89843,14.2788 8.89843,14.3013 8.8969,14.3238 Z" id="Path"></path>
            <path d="M4.5918,8.56329 L5.32066,13.3989 C5.86033,13.9224 6.48075,14.3557 7.15812,14.682 C7.52867,14.6269 7.90841,14.5565 8.29734,14.4677 L4.5918,8.56329 Z" id="Path"></path>
            <path d="M3.71258,7.08722 C2.54273,7.29546 1.70056,7.31996 1.42188,7.13009 C2.41717,9.70866 3.53496,11.4359 4.53943,12.5874 L3.71258,7.11478 L3.71258,7.08722 Z" id="Path"></path>
            <path d="M18.5751,4.26056 C18.2505,4.30343 17.6564,4.51474 17.4727,4.80261 C17.8187,5.07211 18.3608,5.67234 18.6578,5.81628 C18.7742,5.5621 19.0253,4.19625 18.5751,4.26056 Z" id="Path"></path>
            <path d="M17.2308,4.6189 C17.0777,4.31265 16.7929,3.66342 16.3856,3.70017 C16.1314,3.92066 15.8986,4.06153 15.8037,4.36778 C16.1406,4.73833 16.5632,4.4229 16.9674,4.75364 C17.0532,4.69546 17.1665,4.74752 17.2308,4.6189 Z" id="Path"></path>
            <path d="M18.8165,6.97082 C18.8165,7.18213 18.7491,7.65987 18.9666,7.73337 C19.2728,7.84055 19.7873,7.16988 20.0599,6.8422 C19.7842,6.51758 19.2759,6.0429 18.9176,6.12865 C18.7614,6.38896 18.8226,6.65233 18.8165,6.97082 Z" id="Path"></path>
            <path d="M15.3284,4.40146 C15.4631,4.19321 15.0222,3.32042 14.6332,3.45516 C14.4006,3.67047 14.2069,3.92429 14.0605,4.20546 C14.0985,4.31357 14.15,4.41647 14.2137,4.5117 C14.4097,4.41677 15.1722,4.64339 15.3284,4.40146 Z" id="Path"></path>
            <path d="M19.8582,8.67657 C19.7143,8.35195 18.8599,7.93852 18.6516,8.14677 C18.5046,8.29377 18.67,8.70107 18.6731,8.92769 C18.6761,9.15431 18.5904,9.31049 18.7251,9.46362 C19.1508,9.56468 19.4846,8.97669 19.8582,8.67657 Z" id="Path"></path>
            <path d="M18.4271,11.7268 C18.0933,11.7084 18.1209,12.2352 18.0749,12.4955 C18.031,12.7189 18.031,12.9488 18.0749,13.1723 C18.1117,13.2794 18.3383,13.4111 18.4394,13.4479 C18.8156,13.2568 19.1111,12.9375 19.2723,12.5475 C19.156,12.2597 18.7885,11.7452 18.4271,11.7268 Z" id="Path"></path>
            <path d="M16.2926,16.4643 C16.4886,16.0631 17.049,15.4323 17.1531,14.9729 L17.0551,14.8994 C16.4886,15.0464 15.9067,15.0893 15.3555,15.371 C15.5208,15.7324 15.8056,16.2898 16.2926,16.4643 Z" id="Path"></path>
            <path d="M13.405,12.4281 C13.3499,12.5567 13.2917,12.6884 13.2305,12.817 L14.3207,14.9852 L14.5841,14.9852 C15.4354,14.9515 16.2531,14.8596 16.985,14.3911 C17.0738,14.3176 16.8686,14.2349 17.0034,14.2165 C17.426,13.6775 17.4229,13.2488 17.5424,12.7496 C17.6159,12.4434 17.6526,12.1371 17.6986,11.8309 C17.7966,11.2 18.0232,10.5753 18.0997,9.99342 C18.262,8.76845 18.4734,7.54347 18.2988,6.392 C17.9853,6.07357 17.6917,5.73606 17.4199,5.3814 C17.0432,5.33546 16.6573,5.13334 16.2684,5.07515 C16.0908,5.05065 15.8978,5.09353 15.7264,5.07515 C15.0741,5.0384 14.4524,4.98634 13.8093,4.99859 C13.8797,5.32627 13.9471,5.68151 14.0022,6.06432 C14.1798,6.03982 14.3544,6.02757 14.483,6.00919 C14.6851,5.98163 15.7264,5.81932 15.7386,5.96632 C15.7386,6.05207 15.9468,6.08269 15.9775,6.10719 C16.1949,6.28788 16.4062,6.61249 16.59,6.76255 C16.9207,7.80991 16.8595,8.8052 16.7461,9.95361 C16.7155,10.2599 16.691,10.6457 16.6298,11.0163 C16.5165,11.7053 16.4766,12.2413 15.8458,12.9089 C15.3001,13.1095 14.7374,13.2602 14.1645,13.359 C13.9817,13.2631 13.8202,13.1311 13.6896,12.9712 C13.5591,12.8112 13.4623,12.6264 13.405,12.4281 Z" id="Path"></path>
            <path d="M14.8569,9.21249 C14.6426,9.13899 14.5874,9.1543 14.4374,9.01037 C14.321,9.13365 14.2183,9.26919 14.1311,9.41461 C14.1248,9.42523 14.1197,9.43653 14.1158,9.4483 C14.0077,9.81088 13.955,10.1877 13.9596,10.5661 C13.9352,10.8883 13.9705,11.2122 14.0638,11.5216 C14.1907,11.7139 14.3397,11.8907 14.5078,12.0483 C14.7896,12.2075 15.154,11.9044 15.3929,11.8401 C15.5368,11.8002 15.5735,11.9074 15.6991,11.7972 C15.9349,11.5798 15.938,10.9244 16.0054,10.6028 C16.2044,9.41155 16.3116,8.13145 15.9349,7.10859 C15.6583,6.95143 15.3493,6.86002 15.0317,6.84143 C14.7142,6.82285 14.3966,6.87758 14.1036,7.00141 C14.1311,7.28622 14.1495,7.58021 14.1556,7.88033 C14.2598,7.85583 14.3731,7.84052 14.4833,7.8252 C14.7442,7.79012 15.0091,7.79839 15.2673,7.8497 C15.3377,7.9232 15.2306,8.44382 15.2244,8.61838 C15.1877,9.42073 15.2244,10.217 15.0346,10.8876 C14.6977,10.7437 14.8324,10.3456 14.8355,10.0853 C14.8577,9.79492 14.8649,9.50359 14.8569,9.21249 Z" id="Path"></path>
            <path d="M19.6598,10.4038 C19.3937,10.1277 19.0664,9.91788 18.7043,9.79132 C18.3981,9.93219 18.49,10.1558 18.4471,10.4375 C18.3596,10.7358 18.3428,11.0503 18.3981,11.3562 C18.6125,11.5124 18.7564,11.2184 18.9065,11.0929 C19.1698,10.8724 19.5925,10.6856 19.6598,10.4038 Z" id="Path"></path>
            <path d="M18.5909,14.6453 C18.7011,14.4554 18.4102,13.7265 18.2234,13.5612 C17.8681,13.7327 17.421,14.4493 17.2832,14.7861 C17.4516,15.1322 18.4531,14.8749 18.5909,14.6453 Z" id="Path"></path>
            <path d="M14.7872,15.907 C14.8588,15.7327 14.9502,15.5673 15.0598,15.414 C14.9737,15.3471 14.8753,15.2981 14.7701,15.2697 C14.665,15.2413 14.5552,15.2341 14.4473,15.2486 L14.7872,15.907 Z" id="Path"></path>
            <path d="M8.9641,21.6583 C11.2568,21.1809 13.4926,20.4624 15.6341,19.5146 C15.7771,19.4465 15.9051,19.3508 16.0108,19.2328 L13.8671,14.9699 L13.7446,15.0281 C11.8275,15.9024 9.81222,16.5429 7.74219,16.936 L8.49248,21.6521 C8.64773,21.6854 8.80804,21.6875 8.9641,21.6583 Z" id="Path"></path>
            <path d="M17.0098,21.1469 C16.9053,21.3921 16.7099,21.5875 16.4646,21.692 C14.266,22.6707 11.9695,23.4129 9.61398,23.9061 C9.35484,23.9643 9.08325,23.9216 8.85449,23.7867 L9.03518,24.9136 C9.12092,25.174 9.38123,25.5966 10.1254,25.4802 C12.48,24.9872 14.7755,24.245 16.973,23.2661 C17.6437,22.9261 17.6039,22.43 17.5242,22.1666 L17.0098,21.1469 Z" id="Path"></path>
        </g>
    </g>
</svg>