<svg xmlns="http://www.w3.org/2000/svg" viewBox="0 0 661.14 309.4"><defs><style>.cls-1{fill:#37378c;}.cls-2{fill:#3b3b9d;}</style></defs><title>Asset 2</title><g id="Layer_2" data-name="Layer 2"><g id="Layer_1-2" data-name="Layer 1"><path class="cls-1" d="M178.24,292l-4,11H146.2v-.68h.86A4.33,4.33,0,0,0,151.4,298V260.42a4.33,4.33,0,0,0-4.34-4.26h-.85v-.68H161v.68h-.86a4.35,4.35,0,0,0-4.34,4.26v40.41h9.72c7.18,0,9.94-3.71,12-8.87Z"/><path class="cls-1" d="M219.73,298.28c1.39,2.79,3.42,4,5.23,4h.52v.68H211.56v-.68h.54c1.54,0,3.28-1.47,2.39-4.06l-3.7-9H193.65L189.92,298c-1,2.71.74,4.25,2.33,4.25h.53v.68H179.87v-.68h.54c1.8,0,3.92-1.15,5.31-3.92l14-30s2.47-5.21,2.61-7H203ZM210,287.12l-7.62-18.54-7.83,18.54Z"/><path class="cls-1" d="M269,295.12a24.58,24.58,0,0,1-19.3,8.73c-13.39-.07-22.23-8.14-22.23-21.27s8.85-21.28,22.21-21.28a29.07,29.07,0,0,1,15.82,4.1L267,275h-.6c-2-7.92-7.3-11.64-16.77-11.64-10.35,0-17.25,7.31-17.25,19.25s6.93,19.24,17.33,19.24A20.43,20.43,0,0,0,264.63,296l.11-9c0-1.7-1.17-2.66-3.15-2.66h-1v-.67h12.43v.67h-.93c-2,0-3.09,1-3.08,2.69Z"/><path class="cls-1" d="M323.52,282.58c0,12.59-10.23,21.27-22.87,21.27s-22.86-8.68-22.86-21.27S288,261.3,300.65,261.3,323.52,270,323.52,282.58Zm-5,0c0-11.46-7.88-19.25-17.85-19.25s-17.84,7.79-17.84,19.25,7.88,19.25,17.84,19.25S318.5,294,318.5,282.58Z"/><path class="cls-1" d="M351.41,285.67a9.65,9.65,0,0,1,3.07,7.27c0,6.05-5.31,10.91-12,10.91-4,0-9.22-1-11.69-3.19a18.5,18.5,0,0,1,.67-8.41h.78c-.6,6.1,3.51,9.74,9.49,9.57,5.6-.16,9-3.08,9-7.48A6.68,6.68,0,0,0,348.3,289l-13.55-10.46a9.47,9.47,0,0,1-3.24-7.32c-.08-5.51,4.93-9.9,11.2-9.9a29.65,29.65,0,0,1,6.71.63h2.26l.1,7.37H351c0-3.75-2.52-6-7.83-6-4.53,0-8.17,2.86-8.15,6.46a6.53,6.53,0,0,0,2.67,5.34Z"/><path class="cls-2" d="M191.94,67.24A335.86,335.86,0,0,1,208.79,27.5q8.28-16,17.12-19.09a25.9,25.9,0,0,0-6.15-4.48Q215.32,1.41,202.64.62a468.8,468.8,0,0,0-60.75.78A349.89,349.89,0,0,0,91.09,9Q68.64,14.25,53.28,21.85t-21,16.37Q26.6,47,31.42,56.33T53.5,74.25q-5.13-7,5.22-14.41T87.54,46.2a313.79,313.79,0,0,1,40.81-10.52,329.91,329.91,0,0,1,40.71-5.45q-12.24,19.87-22.47,48.7T126.7,139.31q-31.54,0-55.86,11.69t-40.6,29.61a124.51,124.51,0,0,0-14.33,19.06q14.51.3,28.61.5l.07-.08A91.15,91.15,0,0,1,74.87,180q18.07-7.6,41.24-5.65-4,13.45-8.08,26.14,20.31-.06,39.73-.36,4.16-11.31,8.09-23.06,9.65-28.82,18.59-57.46T191.94,67.24Z"/><path class="cls-2" d="M235,131.86q11-8.75,20.57-10.15t16.26,2.59q6.7,4,7.79,9.15,4.2-7.56,1.92-16.91a37.12,37.12,0,0,0-9.17-16.71,42,42,0,0,0-17.06-10.94q-10.19-3.58-22.2-.4t-24.51,15.12q-12.5,11.94-23,36.21-12.42,27.45-14.64,46.75a108.7,108.7,0,0,0-.59,21.17q14.72-.39,28.93-.91c.17-1.1.35-2.21.58-3.35A158.75,158.75,0,0,1,206,181.2a150.28,150.28,0,0,1,8.42-19.9Q224,140.61,235,131.86Z"/><path class="cls-2" d="M297,157.12a7,7,0,0,1,2.41,2.19q2.57-.8-1.28-6.56a60.92,60.92,0,0,0-10-11.34,42.61,42.61,0,0,0-12.68-8.16q-6.51-2.58-9.4,2.59a264.78,264.78,0,0,0-14.3,27.85,138.81,138.81,0,0,0-8,23.47,132.77,132.77,0,0,1-5.39,18q17.68-.9,34.55-2c.23-1.3.53-2.65.92-4.07q2.83-9.56,5.53-17.51t3.88-10.74q2.71-7.15,5.19-10.34c1.64-2.13,3.21-3.39,4.68-3.78A4.89,4.89,0,0,1,297,157.12Z"/><path class="cls-2" d="M379.17,110.77q3.09-8,3.72-10c1-2.91.7-4.7-.95-5.37s-4.16-.66-7.56,0a110.69,110.69,0,0,0-11.47,3q-6.41,2-12.31,3.58a61.38,61.38,0,0,1-10.37,2c-3,.26-4.72-.53-5.26-2.39q-2,4,1.46,7.16c2.33,2.13,4.16,3.18,5.49,3.18q-1.25,4-3.6,10.35t-5,13.73q-2.66,7.36-5.84,15.71t-5.95,16.71c-.75,2.41-1.63,5.16-2.64,8.22-1.71,3.45-3.48,6.89-5.38,10.28q-3.93,7-8.07,13.88l6.29-.51q5-.41,9.9-.84,13.06-1.12,25.59-2.38,2.93-8.34,6.89-19.1,4.25-11.53,9-24.27t8.87-23.87Q376.08,118.74,379.17,110.77Z"/><path class="cls-2" d="M346.28,95.25A41.68,41.68,0,0,0,358,92.47q6.27-2.39,12.67-4.38a14.26,14.26,0,0,1,12.2,1.59,12.28,12.28,0,0,0,2.2-9,17,17,0,0,0-4-9,19.89,19.89,0,0,0-21.4-6A12.3,12.3,0,0,0,351.85,71q-2.64,4-4.88,8a77,77,0,0,1-4.37,7,5.9,5.9,0,0,1-5.82,2.59Q340.82,95.65,346.28,95.25Z"/><path class="cls-2" d="M631.31,107.15q-4.26-9.47-14.7-14.88a42.63,42.63,0,0,0-17.09-3.67A47.19,47.19,0,0,0,580,92.66,66.82,66.82,0,0,0,560.44,106q-9.56,9.09-17.34,23.77Q532,149.94,528.94,166.92a4.56,4.56,0,0,0-.59,1.07,1.3,1.3,0,0,1-.08.17l.48-.12q3.57-.89,7.06-1.79,16.59-4.26,31.44-8.79c.57-1.1,1.15-2.22,1.77-3.35q11.13-20.49,21.76-27.25t15.53-4.44q2.27,1.15.54,10.62a78.45,78.45,0,0,1-3.42,12.24c11.29-4.21,21.66-8.52,31.2-12.89.14-1.27.25-2.54.32-3.79A45.91,45.91,0,0,0,631.31,107.15Z"/><path class="cls-2" d="M439.33,95.74a59.36,59.36,0,0,0-9.93-8,26.8,26.8,0,0,0-10.72-4.28q-5.24-.75-7,4.83-16.17,41-20.93,68.5-2,11.66-2.75,21.45c-1.56,3-3.14,6-4.78,9.12-1.12,2.14-2.26,4.18-3.4,6.19l7.78-.94,8.24-1q9.87-1.27,19.36-2.61,5-30.63,28.83-86.52Q443.77,100.21,439.33,95.74Z"/><path class="cls-2" d="M516.78,105.68a2.64,2.64,0,0,0-.35-.23q-3.13-1.64-8.86-1a66.49,66.49,0,0,0-12.85,2.85q-6.18,1.95-12,3.43c0,.1-.07.19-.1.29q-3.77,11.55-8.19,25.31t-9.3,29.22c-1.75,5.55-3.49,11-5.22,16.36q18.69-3.3,35.75-6.88c.4-1.15.79-2.31,1.19-3.48q9.3-27.33,21-59.15C518.89,109.07,518.54,106.84,516.78,105.68Z"/><path class="cls-2" d="M618.63,53.36,581.06,73a5.75,5.75,0,0,0-2.42,7.73h0a5.75,5.75,0,0,0,7.74,2.42L624,63.51a5.75,5.75,0,0,0,2.42-7.74h0A5.76,5.76,0,0,0,618.63,53.36Z"/><path class="cls-1" d="M105.35,208.86q-5.38,16.56-11,31-4.56,11.29-9.16,21A85.76,85.76,0,0,1,75,277.62a39.73,39.73,0,0,1-12.7,10.71q-7.12,3.71-16.7,2.92Q32,290.08,25.72,280.34T19.41,257q0-13.64,6.48-29a89.16,89.16,0,0,1,18.63-27.78q-14.12-.19-28.61-.5a112.89,112.89,0,0,0-9.7,20.09Q-1.53,241,.38,259.89a54.89,54.89,0,0,0,14.14,32.34Q26.75,305.67,50,308a52.15,52.15,0,0,0,17.89-.78A67.26,67.26,0,0,0,85,301a75.77,75.77,0,0,0,15.1-10.52A70,70,0,0,0,112,276.84q12.28-18.31,23.25-44.61,6.5-15.58,12.53-32.07-19.42.3-39.73.36Q106.68,204.74,105.35,208.86Z"/><path class="cls-1" d="M660.5,171.88a7.21,7.21,0,0,0-3.15-2.89,8.25,8.25,0,0,0-4.28-.78,3.55,3.55,0,0,0-3.15,2.52q-2.7,5.42-6.33,11.59t-5.9,10.43a73.42,73.42,0,0,1-15.58,17.78,58,58,0,0,1-17.79,10.05,48.55,48.55,0,0,1-17.78,2.7,30.07,30.07,0,0,1-15.24-4.63,105.16,105.16,0,0,0,24.49-17A138.19,138.19,0,0,0,615.59,179a120.64,120.64,0,0,0,13.61-25.31,83.89,83.89,0,0,0,5.43-21.33c-9.54,4.37-19.91,8.68-31.2,12.89-1.11,3.1-2.43,6.35-4,9.79A136.57,136.57,0,0,1,583.68,181a95.14,95.14,0,0,1-24.43,22.6q-2.94-8.88-1-21.06,1.72-10.89,9-25-14.87,4.51-31.44,8.79c-2.2.57-4.43,1.13-6.67,1.69,0-.36,0-.57,0-.57l-.31.64-.11,0-.48.12s0,.44-.06,1.22q-3.06,6.44-6.82,13.28-4.41,8-8.44,14.7a40.77,40.77,0,0,1-10.54,11.91q-5.71,4.09-10.53,4.84c-3.2.5-5.7-.19-7.47-2.05a5.21,5.21,0,0,1-.94-1.37l.68-2,10.68-31.32c.27-.78.54-1.59.81-2.38q-17.07,3.59-35.75,6.88-2.22,6.9-4.43,13.61a53.17,53.17,0,0,1-4.59,10.93c-.46.83-.92,1.66-1.43,2.47a46.74,46.74,0,0,1-8.87,10.61,31.68,31.68,0,0,1-10.15,6.14,12.54,12.54,0,0,1-9.49,0q-10.69-4.83-5.91-35.55c.06-.37.13-.77.19-1.15q-9.49,1.35-19.36,2.62l-8.24,1-7.78.94c-1.92,3.35-3.85,6.54-5.82,9.53A40.71,40.71,0,0,1,363,216q-6.25,4.58-11.19,5.37c-3.3.54-5.9-.2-7.79-2.19s-2.26-5.1-1.09-9.35q.78-2.78,3.85-11.54l.42-1.19q-12.52,1.24-25.59,2.38-4.92.44-9.9.84l-6.29.51c-.29.48-.57,1-.87,1.44Q298.09,213,291.64,217.6c-4.3,3.05-8.05,4.32-11.25,3.78s-5.55-2.72-7.06-6.56q-1.75-4.53-.45-11.65-16.87,1.08-34.55,2a66.44,66.44,0,0,1-10,18q-9.85,12.15-21.5,9-6.82-1.58-8-9.74a54.19,54.19,0,0,1,.37-15.55q-14.22.53-28.93.91a60.43,60.43,0,0,0,1.81,10.86q3.47,12.74,10.57,19.49t13.65,8.76a34.9,34.9,0,0,0,10.46,1.79,33,33,0,0,0,12.5-2.19,41.58,41.58,0,0,0,13-8.16,58.79,58.79,0,0,0,12-15.72,26.38,26.38,0,0,0,9.56,12.54,30.08,30.08,0,0,0,16.63,6q9.51.6,20.46-5t20.87-20a32.37,32.37,0,0,0,6.06,14.08,27.25,27.25,0,0,0,13.42,9.35,35.56,35.56,0,0,0,17.2,1,45.85,45.85,0,0,0,18.07-7.76,51.43,51.43,0,0,0,15.33-17.31q3-4.77,6.32-10.54l.47-.81q2.47,15.16,9,23.08,7.11,8.56,14.93,11.16a39.93,39.93,0,0,0,14,1.49q7.69-.34,15.37-5.88l-2.12,6.55c-1.66,5.13-3.23,9.9-4.71,14.35h-.15c-2.1,6.07-3.75,10.43-4.92,13.08-2.67,6.48-5.79,11.13-9.33,14a15.75,15.75,0,0,1-2.83,1.9q-7.1,3.68-13.4,1.64A20.21,20.21,0,0,1,394,277.07,21.38,21.38,0,0,1,390.39,263q-6,9-4.7,17.74a30.68,30.68,0,0,0,6.89,15.5,36.29,36.29,0,0,0,14.81,10.41A36.87,36.87,0,0,0,426,309.09q9.43-1.21,18.52-7.95t14.78-21c.67-1.61,1.6-4.1,2.79-7.42L468,255.48h.12c.73-2.2,1.48-4.48,2.26-6.86l.11.08,6.3-18.46q8.61,4.6,20.12.81,12.93-4.28,23.43-22.15,2.45-4.47,5.68-10.05c1-1.7,1.92-3.35,2.83-5a54.67,54.67,0,0,0,6.3,18,53,53,0,0,0,22.77,21.45,66.08,66.08,0,0,0,30.84,7.15,67.06,67.06,0,0,0,31.71-8.69q15.53-8.5,25.23-25.9,1.54-2.7,3.75-7.15t4.46-8.69q2.26-4.25,4.24-8.12a40.94,40.94,0,0,0,2.59-5.79A4.74,4.74,0,0,0,660.5,171.88Z"/></g></g></svg>